# AST/ASF file generated using VICON BodyLanguage
# -----------------------------------------------
:version 1.10
:name VICON
:units
  mass 1.0
  length 0.45
  angle deg
:documentation
   .ast/.asf automatically generated from VICON data using
   VICON BodyBuilder and BodyLanguage model FoxedUp or BRILLIANT.MOD
:root
   order TX TY TZ RX RY RZ
   axis XYZ
   position 0 0 0  
   orientation 0 0 0 
:bonedata
  begin
     id 1 
     name lhipjoint
     direction 0.734343 -0.627749 0.258209 
     length 2.5437 
     axis 0 0 0  XYZ
  end
  begin
     id 2 
     name lfemur
     direction 0.34202 -0.939693 0  
     length 6.7391  
     axis 0 0 20  XYZ
    dof rx ry rz
    limits (-160.0 20.0)
           (-70.0 70.0)
           (-60.0 70.0)
  end
  begin
     id 3 
     name ltibia
     direction 0.34202 -0.939693 0   
     length 7.21536   
     axis 0 0 20   XYZ
    dof rx
    limits (-10.0 170.0)
  end
  begin
     id 4 
     name lfoot
     direction 0.0489572 -0.134509 0.989702   
     length 1.61313   
     axis -90 7.62852e-016 20   XYZ
    dof rx rz
    limits (-45.0 90.0)
           (-70.0 20.0)
  end
  begin
     id 5 
     name ltoes
     direction 1.53451e-011 -4.21692e-011 1   
     length 0.823104   
     axis -90 7.62852e-016 20   XYZ
    dof rx
    limits (-90.0 20.0)
  end
  begin
     id 6 
     name rhipjoint
     direction -0.746398 -0.615468 0.253157   
     length 2.59446  
     axis 0 0 0  XYZ 
  end
  begin
     id 7 
     name rfemur
     direction -0.34202 -0.939693 0   
     length 6.7075   
     axis 0 0 -20   XYZ
    dof rx ry rz
    limits (-160.0 20.0)
           (-70.0 70.0)
           (-70.0 60.0)
  end
  begin
     id 8 
     name rtibia
     direction -0.34202 -0.939693 0   
     length 7.27262   
     axis 0 0 -20   XYZ
    dof rx
    limits (-10.0 170.0)
 end
 begin
     id 9 
     name rfoot
     direction -0.0455203 -0.125066 0.991104   
     length 1.91095  
     axis -90 -7.62852e-016 -20   XYZ
    dof rx rz
    limits (-45.0 90.0)
           (-20.0 70.0)
  end
  begin
     id 10 
     name rtoes
     direction -1.53601e-011 -4.21913e-011 1   
     length 0.969037   
     axis -90 -7.62852e-016 -20   XYZ
    dof rx
    limits (-90.0 20.0)
  end
  begin
     id 11 
     name lowerback
     direction 0.0181546 0.999122 -0.0377542   
     length 1.99916   
     axis 0 0 0   XYZ
    dof rx ry rz
    limits (-20.0 45.0)
           (-30.0 30.0)
           (-30.0 30.0)
  end
  begin
     id 12 
     name upperback
     direction 0.0203486 0.99589 0.0882534   
     length 1.951   
     axis 0 0 0   XYZ
    dof rx ry rz
    limits (-20.0 45.0)
           (-30.0 30.0)
           (-30.0 30.0)
  end
  begin
     id 13 
     name thorax
     direction 0.0131685 0.994241 0.106355   
     length 1.97461   
     axis 0 0 0   XYZ
    dof rx ry rz
    limits (-20.0 45.0)
           (-30.0 30.0)
           (-30.0 30.0)
  end
  begin
     id 14 
     name lowerneck
     direction -0.0281395 0.999325 0.023617   
     length 1.7959   
     axis 0 0 0   XYZ
    dof rx ry rz
    limits (-20.0 45.0)
           (-30.0 30.0)
           (-30.0 30.0)
  end
  begin
     id 15 
     name upperneck
     direction 0.0288721 0.991984 -0.123019   
     length 1.79917   
     axis 0 0 0   XYZ
    dof rx ry rz
    limits (-20.0 45.0)
           (-30.0 30.0)
           (-30.0 30.0)
  end
  begin
     id 16
     name head
     direction 0.0133797 0.998944 -0.0439492  
     length 1.80902  
     axis 0 0 0   XYZ
    dof rx ry rz
    limits (-20.0 45.0)
           (-30.0 30.0)
           (-30.0 30.0)
  end
  begin
     id 17 
     name lclavicle
     direction 0.919195 0.377107 0.113449  
     length 3.17815  
     axis 0 0 0   XYZ
    dof ry rz
    limits (-20.0 10.0)
           (0.0 20.0)
  end
  begin
     id 18 
     name lhumerus
     direction 1 -4.48959e-011 2.13129e-027   
     length 4.84137   
     axis 180 -30 -90   XYZ
    dof rx ry rz
    limits (-60.0 90.0)
           (-90.0 90.0)
           (-90.0 90.0)
  end
  begin
     id 19
     name lradius
     direction 1 -4.48957e-011 -6.30627e-028   
     length 3.2452   
     axis 180 -30 -90   XYZ
    dof rx
    limits (-10.0 170.0)
  end
  begin
     id 20
     name lwrist
     direction 1 -4.4901e-011 9.13299e-027   
     length 1.6226   
     axis -6.84618e-015 90 90   XYZ
    dof ry
    limits (-180.0 0.0)
 end
  begin
     id 21 
     name lhand
     direction 1 -4.48816e-011 1.82293e-026   
     length 0.521221   
     axis -1.16502e-014 90 90   XYZ
    dof rx rz
    limits (-90.0 90.0)
           (-45.0 45.0)
  end
  begin
     id 22 
     name lfingers
     direction 1 -4.49108e-011 3.65687e-026   
     length 0.420221   
     axis -2.33008e-014 90 90   XYZ
    dof rx
    limits (0.0 90.0)
  end
  begin
     id 23
     name lthumb
     direction 0.707107 -6.34943e-011 0.707107   
     length 0.603356   
     axis -90 45 5.69224e-014   XYZ
    dof rx rz
    limits (-45.0 45.0)
           (-45.0 45.0)
  end
  begin
     id 24 
     name rclavicle
     direction -0.90847 0.38596 0.160368   
     length 3.12973  
     axis 0 0 0   XYZ 
    dof ry rz
    limits (-10.0 20.0)
           (-20.0 0.0)
  end
  begin
     id 25 
     name rhumerus
     direction -1 -4.48974e-011 4.47268e-028  
     length 4.72284   
     axis 180 30 90   XYZ
    dof rx ry rz
    limits (-90.0 60.0)
           (-90.0 90.0)
           (-90.0 90.0)
  end
  begin
     id 26 
     name rradius
     direction -1 -4.48969e-011 3.43203e-027   
     length 3.23459   
     axis 180 30 90   XYZ
    dof rx
    limits (-10.0 170.0)
  end
  begin
     id 27 
     name rwrist
     direction -1 -4.48969e-011 9.12911e-027   
     length 1.6173   
     axis -6.84618e-015 -90 -90   XYZ
    dof ry
    limits (-180.0 0.0)
  end
  begin
     id 28
     name rhand
     direction -1 -4.49194e-011 1.83006e-026   
     length 0.307416   
     axis -1.16502e-014 -90 -90   XYZ
    dof rx rz
    limits (-90.0 90.0)
           (-45.0 45.0)
  end
  begin
     id 29
     name rfingers
     direction -1 -4.48423e-011 3.63103e-026   
     length 0.247847   
     axis -2.33008e-014 -90 -90   XYZ
    dof rx
    limits (0.0 90.0)
  end
  begin
     id 30
     name rthumb
     direction -0.707107 -6.34802e-011 0.707107   
     length 0.35586   
     axis -90 -45 -5.69224e-014   XYZ
    dof rx rz
    limits (-45.0 45.0)
           (-45.0 45.0)
  end
:hierarchy
  begin
    root lhipjoint rhipjoint lowerback
    lhipjoint lfemur
    lfemur ltibia
    ltibia lfoot
    lfoot ltoes
    rhipjoint rfemur
    rfemur rtibia
    rtibia rfoot
    rfoot rtoes
    lowerback upperback
    upperback thorax
    thorax lowerneck lclavicle rclavicle
    lowerneck upperneck
    upperneck head
    lclavicle lhumerus
    lhumerus lradius
    lradius lwrist
    lwrist lhand lthumb
    lhand lfingers
    rclavicle rhumerus
    rhumerus rradius
    rradius rwrist
    rwrist rhand rthumb
    rhand rfingers
  end

#!OML:ASF H:\Terrain\Patient Classification 1\Animal1\Tuesday\Animal1.ASF
:FULLY-SPECIFIED
:DEGREES
61
root 11.1414 16.2541 -15.4261 15.2986 -2.92588 -0.497973
lowerback 2.08306 -0.555579 0.877242
upperback -4.48945 -0.632062 1.4023
thorax -5.81207 -0.319269 1.00887
lowerneck -1.46965 -9.24555 -9.09697
upperneck -0.602644 -12.2766 9.26397
head 1.32926 -6.10589 4.34737
rclavicle 8.44835e-015 2.38542e-015
rhumerus -13.8422 8.06304 -22.846
rradius 18.2892
rwrist -7.70601
rhand -7.13902 15.0943
rfingers 7.12502
rthumb 18.7371 -14.0233
lclavicle 8.44835e-015 2.38542e-015
lhumerus -20.2695 11.6771 21.6732
lradius 20.4868
lwrist -31.7523
lhand 6.9077 51.9271
lfingers 7.12502
lthumb 32.1878 79.0952
rfemur -28.85 13.145 9.93489
rtibia 24.4401
rfoot -1.48167 -29.4776
rtoes -9.36456
lfemur -24.7638 -6.92188 -7.17041
ltibia 22.5653
lfoot -13.7547 11.3931
ltoes -15.3373
62
root 11.1506 16.2322 -15.4508 15.393 -3.0046 -0.781838
lowerback 2.38037 -0.507828 1.19702
upperback -4.39917 -0.541457 1.5078
thorax -5.89127 -0.285934 0.935472
lowerneck -1.61203 -9.11169 -9.12374
upperneck -0.724656 -12.0799 9.31607
head 1.30091 -6.00453 4.37696
rclavicle -1.09332e-015 -2.78299e-015
rhumerus -13.2054 8.85535 -21.4943
rradius 18.7656
rwrist -9.19084
rhand -6.38995 13.9711
rfingers 7.12502
rthumb 19.4575 -15.0754
lclavicle -1.09332e-015 -2.78299e-015
lhumerus -19.8863 11.7223 20.6183
lradius 20.5363
lwrist -31.446
lhand 6.95174 52.2743
lfingers 7.12502
lthumb 32.2298 79.4339
rfemur -29.4539 12.278 10.4086
rtibia 25.153
rfoot -1.14244 -28.5173
rtoes -11.9737
lfemur -25.4817 -6.20065 -6.99464
ltibia 23.6112
lfoot -14.0069 11.0461
ltoes -17.5231
63
root 11.1566 16.2082 -15.4758 15.4507 -3.11873 -0.823044
lowerback 2.73076 -0.506599 1.23227
upperback -4.36829 -0.528332 1.5479
thorax -6.06041 -0.280014 0.960434
lowerneck -1.63245 -8.90241 -9.23473
upperneck -0.8278 -11.7912 9.90588
head 1.16334 -5.85001 4.14556
rclavicle 1.24737e-014 -1.07344e-014
rhumerus -12.5561 10.2455 -20.2596
rradius 19.393
rwrist -11.199
rhand -6.17642 13.0553
rfingers 7.12502
rthumb 19.6628 -15.9703
lclavicle 1.24737e-014 -1.07344e-014
lhumerus -19.5765 12.0314 19.4039
lradius 20.4155
lwrist -31.4807
lhand 6.85172 52.2359
lfingers 7.12502
lthumb 32.1345 79.4148
rfemur -30.0539 11.3268 10.6471
rtibia 25.8882
rfoot -1.3673 -27.5111
rtoes -13.0906
lfemur -26.1538 -5.56461 -7.07422
ltibia 24.6509
lfoot -14.4671 10.536
ltoes -17.0944
64
root 11.1614 16.1835 -15.5041 15.5829 -3.23817 -0.695616
lowerback 3.04895 -0.523218 1.06215
upperback -4.34802 -0.553229 1.56224
thorax -6.22009 -0.284047 1.07656
lowerneck -1.78538 -8.6774 -9.25004
upperneck -1.08087 -11.4645 10.0571
head 1.09318 -5.68416 4.20834
rclavicle -1.14798e-014 -2.14687e-014
rhumerus -11.7041 10.9529 -18.9717
rradius 19.8229
rwrist -12.5895
rhand -6.39951 13.2772
rfingers 7.12502
rthumb 19.4483 -15.7702
lclavicle -1.14798e-014 -2.14687e-014
lhumerus -19.3248 12.1716 18.2217
lradius 20.3159
lwrist -31.3474
lhand 6.89426 52.1047
lfingers 7.12502
lthumb 32.175 79.2754
rfemur -30.7826 10.4468 10.6588
rtibia 26.691
rfoot -1.46324 -26.7064
rtoes -13.6077
lfemur -26.8933 -4.94514 -7.33174
ltibia 25.6484
lfoot -14.8892 10.0369
ltoes -17.1208
65
root 11.1677 16.1614 -15.5327 15.7795 -3.22056 -0.684708
lowerback 3.27681 -0.532142 1.079
upperback -4.25245 -0.559528 1.58754
thorax -6.25019 -0.287133 1.09574
lowerneck -2.30473 -8.50244 -9.01639
upperneck -1.25319 -11.1823 9.92287
head 1.0782 -5.53251 4.12803
rclavicle 5.86415e-015 -1.03368e-014
rhumerus -10.9062 10.9922 -17.6006
rradius 20.1002
rwrist -13.5375
rhand -6.4901 13.5186
rfingers 7.12502
rthumb 19.3612 -15.5376
lclavicle 5.86415e-015 -1.03368e-014
lhumerus -18.9468 11.8189 17.2248
lradius 20.4468
lwrist -30.7601
lhand 7.22497 52.4232
lfingers 7.12502
lthumb 32.4898 79.5297
rfemur -31.5778 9.49848 10.8318
rtibia 27.5851
rfoot -1.64894 -25.9985
rtoes -14.1827
lfemur -27.7082 -4.23705 -7.47778
ltibia 26.5425
lfoot -15.0557 9.52212
ltoes -18.5198
66
root 11.1742 16.1381 -15.561 15.9099 -3.15287 -0.735625
lowerback 3.58296 -0.508006 1.20678
upperback -4.14251 -0.513389 1.5974
thorax -6.31205 -0.269727 1.03286
lowerneck -2.8979 -8.36578 -8.72222
upperneck -1.31675 -10.9604 9.35818
head 1.20057 -5.41806 4.32777
rclavicle 1.61513e-014 -1.19271e-015
rhumerus -10.3036 10.8461 -16.2206
rradius 20.3341
rwrist -14.4592
rhand -6.7159 13.2675
rfingers 7.12502
rthumb 19.144 -15.8103
lclavicle 1.61513e-014 -1.19271e-015
lhumerus -18.4764 11.3869 16.2719
lradius 20.6561
lwrist -30.1173
lhand 7.39284 52.8075
lfingers 7.12502
lthumb 32.6495 79.881
rfemur -32.3214 8.54799 11.1025
rtibia 28.5175
rfoot -1.87898 -25.3002
rtoes -15.6403
lfemur -28.4327 -3.50507 -7.56688
ltibia 27.3416
lfoot -15.2096 8.91286
ltoes -19.2584
67
root 11.1786 16.113 -15.587 15.9469 -3.17133 -0.566676
lowerback 3.96825 -0.502769 1.07356
upperback -4.04682 -0.510546 1.56099
thorax -6.43183 -0.262828 1.07302
lowerneck -3.28751 -8.1349 -8.36169
upperneck -1.50106 -10.6201 9.10304
head 1.13521 -5.24196 4.17458
rclavicle -1.04859e-014 -7.55382e-015
rhumerus -9.6362 11.1322 -14.8939
rradius 20.6416
rwrist -15.818
rhand -7.25056 12.0343
rfingers 7.12502
rthumb 18.6298 -17.0936
lclavicle -1.04859e-014 -7.55382e-015
lhumerus -18.1301 11.499 15.1523
lradius 20.7587
lwrist -30.0389
lhand 7.62233 52.8887
lfingers 7.12502
lthumb 32.8679 79.9167
rfemur -33.0145 7.8087 11.0574
rtibia 29.4811
rfoot -2.06963 -24.6965
rtoes -16.9538
lfemur -29.0111 -3.03565 -7.85033
ltibia 28.1004
lfoot -15.5295 8.33193
ltoes -18.0708
68
root 11.1826 16.0901 -15.6116 15.9872 -3.14255 -0.340745
lowerback 4.34133 -0.537197 0.905638
upperback -3.97023 -0.566423 1.49349
thorax -6.56411 -0.284064 1.10614
lowerneck -3.62388 -7.81671 -8.04597
upperneck -1.7082 -10.168 8.9206
head 1.05304 -5.01142 4.06444
rclavicle 5.11871e-015 1.19271e-015
rhumerus -9.03987 12.0809 -13.5647
rradius 21.1266
rwrist -17.8415
rhand -7.55537 10.0941
rfingers 7.12502
rthumb 18.3366 -19.0617
lclavicle 5.11871e-015 1.19271e-015
lhumerus -17.8572 11.0169 14.0499
lradius 20.9437
lwrist -29.4887
lhand 7.80673 52.9194
lfingers 7.12502
lthumb 33.0432 79.9104
rfemur -33.7163 7.14355 10.9351
rtibia 30.5179
rfoot -2.77058 -24.182
rtoes -16.6544
lfemur -29.5931 -2.70536 -8.16393
ltibia 28.8081
lfoot -15.777 7.78707
ltoes -17.1624
69
root 11.1872 16.0609 -15.6419 16.1276 -3.05329 -0.14581
lowerback 4.71411 -0.557885 0.810527
upperback -3.94307 -0.59994 1.41019
thorax -6.74995 -0.297897 1.08076
lowerneck -4.11397 -7.51301 -7.70611
upperneck -1.76505 -9.73689 8.74341
head 1.05096 -4.78793 3.94151
rclavicle 1.2921e-015 -1.07344e-014
rhumerus -8.58961 12.6096 -12.1844
rradius 21.5439
rwrist -19.5716
rhand -7.65418 10.4367
rfingers 7.12502
rthumb 18.2416 -18.728
lclavicle 1.2921e-015 -1.07344e-014
lhumerus -17.5042 10.0193 13.043
lradius 21.152
lwrist -28.4088
lhand 7.85668 52.8666
lfingers 7.12502
lthumb 33.0907 79.8476
rfemur -34.5656 6.48513 10.8447
rtibia 31.5926
rfoot -3.50102 -23.7475
rtoes -16.3516
lfemur -30.3324 -2.16896 -8.47941
ltibia 29.4767
lfoot -15.895 7.14762
ltoes -17.282
70
root 11.1904 16.0272 -15.6709 16.2916 -3.02131 0.188488
lowerback 4.99561 -0.564761 0.538477
upperback -3.86694 -0.632104 1.3333
thorax -6.82898 -0.302513 1.15944
lowerneck -4.56342 -7.21618 -7.52891
upperneck -1.97267 -9.30723 8.68412
head 1.01144 -4.56584 3.89522
rclavicle -8.94531e-016 3.97569e-015
rhumerus -8.06452 12.5961 -10.726
rradius 21.914
rwrist -20.7972
rhand -7.61346 11.4445
rfingers 7.12502
rthumb 18.2807 -17.7165
lclavicle -8.94531e-016 3.97569e-015
lhumerus -17.0378 9.76316 12.0313
lradius 21.1585
lwrist -27.8988
lhand 8.10791 52.9111
lfingers 7.12502
lthumb 33.3296 79.8412
rfemur -35.4608 5.87407 10.5705
rtibia 32.6237
rfoot -4.05962 -23.4518
rtoes -16.1731
lfemur -31.107 -1.56422 -8.97904
ltibia 30.1879
lfoot -16.046 6.46887
ltoes -17.0927
71
root 11.1944 15.9974 -15.692 16.4651 -2.96675 0.35502
lowerback 5.10707 -0.584239 0.442515
upperback -3.78868 -0.666313 1.3201
thorax -6.80869 -0.315222 1.20377
lowerneck -4.53872 -6.88491 -7.49507
upperneck -2.56384 -8.83718 8.77259
head 0.776758 -4.33425 3.95355
rclavicle 1.18277e-014 3.97569e-016
rhumerus -7.49237 12.2991 -9.24906
rradius 22.2418
rwrist -21.4072
rhand -7.54078 10.9473
rfingers 7.12502
rthumb 18.3506 -18.2071
lclavicle 1.18277e-014 3.97569e-016
lhumerus -16.6248 9.8209 10.9749
lradius 21.1993
lwrist -27.8037
lhand 8.62553 53.1465
lfingers 7.12502
lthumb 33.8216 79.9697
rfemur -36.2602 5.24555 10.5003
rtibia 33.5868
rfoot -4.56538 -23.2233
rtoes -15.7013
lfemur -31.8925 -0.982863 -9.31041
ltibia 31.0087
lfoot -16.3182 5.84595
ltoes -17.3057
